<svg width="87" height="83" viewBox="0 0 87 83" fill="none" xmlns="http://www.w3.org/2000/svg">
<rect x="0.63339" y="27.4867" width="84.1694" height="8.23077" transform="rotate(-18.6048 0.63339 27.4867)" fill="#52839C" stroke="#9BB69E"/>
<rect x="0.5" y="27.7685" width="86" height="54" fill="#52839C" stroke="#9BB69E"/>
<path d="M28.0589 52.5534C27.6689 52.5534 27.2339 52.4884 26.7539 52.3584C26.2739 52.2384 25.7889 52.0434 25.2989 51.7734C24.8189 51.5034 24.3739 51.1534 23.9639 50.7234C23.5639 50.2934 23.2389 49.7784 22.9889 49.1784C22.7489 48.5784 22.6289 47.8834 22.6289 47.0934C22.6289 46.3334 22.7489 45.6634 22.9889 45.0834C23.2389 44.5034 23.5639 44.0034 23.9639 43.5834C24.3639 43.1634 24.8039 42.8234 25.2839 42.5634C25.7739 42.3034 26.2639 42.1134 26.7539 41.9934C27.2439 41.8634 27.6939 41.7984 28.1039 41.7984C28.6139 41.7984 29.0639 41.8634 29.4539 41.9934C29.8439 42.1134 30.1589 42.2434 30.3989 42.3834C30.6489 42.5134 30.8039 42.5984 30.8639 42.6384C31.0639 42.7684 31.2489 42.9134 31.4189 43.0734C31.5989 43.2234 31.6889 43.4284 31.6889 43.6884C31.6889 43.8184 31.6589 43.9534 31.5989 44.0934C31.5489 44.2334 31.4689 44.3784 31.3589 44.5284C31.1589 44.8084 30.9689 45.0134 30.7889 45.1434C30.6189 45.2734 30.4489 45.3384 30.2789 45.3384C30.1489 45.3384 30.0239 45.3084 29.9039 45.2484C29.7839 45.1884 29.6389 45.1034 29.4689 44.9934C29.3989 44.9434 29.3089 44.8884 29.1989 44.8284C29.0889 44.7584 28.9389 44.6984 28.7489 44.6484C28.5589 44.5884 28.3089 44.5584 27.9989 44.5584C27.7389 44.5584 27.4539 44.6084 27.1439 44.7084C26.8439 44.7984 26.5589 44.9484 26.2889 45.1584C26.0189 45.3584 25.7989 45.6284 25.6289 45.9684C25.4589 46.2984 25.3739 46.6984 25.3739 47.1684C25.3739 47.6484 25.4589 48.0534 25.6289 48.3834C25.8089 48.7134 26.0339 48.9834 26.3039 49.1934C26.5739 49.3934 26.8589 49.5434 27.1589 49.6434C27.4689 49.7334 27.7489 49.7784 27.9989 49.7784C28.2589 49.7784 28.4789 49.7584 28.6589 49.7184C28.8389 49.6684 28.9989 49.6034 29.1389 49.5234C29.2889 49.4434 29.4239 49.3634 29.5439 49.2834C29.6539 49.2034 29.7739 49.1334 29.9039 49.0734C30.0339 49.0134 30.1639 48.9834 30.2939 48.9834C30.4639 48.9834 30.6339 49.0534 30.8039 49.1934C30.9739 49.3334 31.1539 49.5484 31.3439 49.8384C31.4539 50.0084 31.5339 50.1684 31.5839 50.3184C31.6439 50.4584 31.6739 50.5884 31.6739 50.7084C31.6739 50.9584 31.5839 51.1584 31.4039 51.3084C31.2339 51.4584 31.0489 51.5934 30.8489 51.7134C30.7789 51.7534 30.6289 51.8434 30.3989 51.9834C30.1689 52.1234 29.8589 52.2534 29.4689 52.3734C29.0789 52.4934 28.6089 52.5534 28.0589 52.5534ZM33.6518 52.4034C33.2018 52.4034 32.8818 52.3384 32.6918 52.2084C32.5018 52.0684 32.3868 51.8934 32.3468 51.6834C32.3168 51.4734 32.3018 51.2584 32.3018 51.0384V42.6984C32.3018 42.4684 32.3218 42.2534 32.3618 42.0534C32.4018 41.8434 32.5168 41.6734 32.7068 41.5434C32.8968 41.4134 33.2168 41.3484 33.6668 41.3484C34.1168 41.3484 34.4318 41.4184 34.6118 41.5584C34.8018 41.6884 34.9168 41.8584 34.9568 42.0684C34.9968 42.2684 35.0168 42.4834 35.0168 42.7134V45.4434C35.1668 45.3034 35.3668 45.1634 35.6168 45.0234C35.8768 44.8734 36.1768 44.7984 36.5168 44.7984C37.1568 44.7984 37.7318 44.9684 38.2418 45.3084C38.7518 45.6384 39.1568 46.0884 39.4568 46.6584C39.7568 47.2284 39.9068 47.8734 39.9068 48.5934V51.0534C39.9068 51.2734 39.8868 51.4884 39.8468 51.6984C39.8068 51.8984 39.6918 52.0684 39.5018 52.2084C39.3218 52.3384 39.0018 52.4034 38.5418 52.4034C38.1018 52.4034 37.7818 52.3384 37.5818 52.2084C37.3918 52.0784 37.2768 51.9084 37.2368 51.6984C37.1968 51.4884 37.1768 51.2634 37.1768 51.0234V48.5784C37.1768 48.3584 37.1368 48.1734 37.0568 48.0234C36.9768 47.8634 36.8618 47.7384 36.7118 47.6484C36.5618 47.5584 36.3818 47.5134 36.1718 47.5134C35.9018 47.5134 35.6518 47.5984 35.4218 47.7684C35.1918 47.9384 35.0568 48.1334 35.0168 48.3534V51.0534C35.0168 51.2734 34.9968 51.4884 34.9568 51.6984C34.9168 51.9084 34.8018 52.0784 34.6118 52.2084C34.4318 52.3384 34.1118 52.4034 33.6518 52.4034ZM44.654 52.5684C43.904 52.5684 43.269 52.4484 42.749 52.2084C42.229 51.9584 41.809 51.6384 41.489 51.2484C41.169 50.8484 40.934 50.4184 40.784 49.9584C40.634 49.4984 40.559 49.0534 40.559 48.6234C40.559 47.8334 40.734 47.1384 41.084 46.5384C41.434 45.9384 41.919 45.4684 42.539 45.1284C43.159 44.7884 43.869 44.6184 44.669 44.6184C45.289 44.6184 45.819 44.7184 46.259 44.9184C46.699 45.1184 47.054 45.3734 47.324 45.6834C47.604 45.9934 47.809 46.3234 47.939 46.6734C48.069 47.0234 48.134 47.3484 48.134 47.6484C48.134 48.2184 47.994 48.6534 47.714 48.9534C47.434 49.2534 47.074 49.4034 46.634 49.4034H43.439C43.479 49.5634 43.559 49.7034 43.679 49.8234C43.809 49.9334 43.969 50.0234 44.159 50.0934C44.349 50.1534 44.554 50.1834 44.774 50.1834C44.994 50.1834 45.189 50.1734 45.359 50.1534C45.529 50.1234 45.674 50.0884 45.794 50.0484C45.924 50.0084 46.039 49.9684 46.139 49.9284C46.249 49.8884 46.344 49.8584 46.424 49.8384C46.514 49.8084 46.599 49.7934 46.679 49.7934C46.859 49.7934 47.024 49.8534 47.174 49.9734C47.324 50.0934 47.459 50.2734 47.579 50.5134C47.649 50.6434 47.699 50.7684 47.729 50.8884C47.759 50.9984 47.774 51.1034 47.774 51.2034C47.774 51.5034 47.649 51.7534 47.399 51.9534C47.159 52.1534 46.809 52.3034 46.349 52.4034C45.889 52.5134 45.324 52.5684 44.654 52.5684ZM43.439 47.9934H45.119C45.259 47.9934 45.359 47.9634 45.419 47.9034C45.489 47.8434 45.524 47.7534 45.524 47.6334C45.524 47.5034 45.484 47.3934 45.404 47.3034C45.334 47.2134 45.234 47.1484 45.104 47.1084C44.974 47.0584 44.819 47.0334 44.639 47.0334C44.399 47.0334 44.189 47.0834 44.009 47.1834C43.829 47.2734 43.689 47.3934 43.589 47.5434C43.499 47.6834 43.449 47.8334 43.439 47.9934ZM52.6663 52.4784C52.2563 52.4784 51.8213 52.3984 51.3613 52.2384C50.9113 52.0684 50.4863 51.8234 50.0863 51.5034C49.6863 51.1734 49.3613 50.7634 49.1113 50.2734C48.8613 49.7834 48.7363 49.2134 48.7363 48.5634C48.7363 47.9234 48.8613 47.3634 49.1113 46.8834C49.3613 46.3934 49.6813 45.9884 50.0713 45.6684C50.4713 45.3484 50.8963 45.1084 51.3463 44.9484C51.8063 44.7784 52.2363 44.6934 52.6363 44.6934C53.0163 44.6934 53.3463 44.7334 53.6263 44.8134C53.9063 44.8934 54.1363 44.9834 54.3163 45.0834C54.4963 45.1734 54.6263 45.2434 54.7063 45.2934C54.9063 45.4134 55.0913 45.5534 55.2613 45.7134C55.4413 45.8634 55.5313 46.0684 55.5313 46.3284C55.5313 46.4584 55.5063 46.5934 55.4563 46.7334C55.4063 46.8634 55.3263 47.0134 55.2163 47.1834C54.8563 47.7334 54.4963 48.0084 54.1363 48.0084C53.9763 48.0084 53.8363 47.9834 53.7163 47.9334C53.5963 47.8734 53.4863 47.8084 53.3863 47.7384C53.2863 47.6684 53.1763 47.6084 53.0563 47.5584C52.9463 47.4984 52.8063 47.4684 52.6363 47.4684C52.4363 47.4684 52.2513 47.5184 52.0813 47.6184C51.9113 47.7184 51.7763 47.8534 51.6763 48.0234C51.5763 48.1834 51.5263 48.3684 51.5263 48.5784C51.5263 48.7884 51.5763 48.9784 51.6763 49.1484C51.7763 49.3184 51.9063 49.4534 52.0663 49.5534C52.2363 49.6534 52.4163 49.7034 52.6063 49.7034C52.7463 49.7034 52.8613 49.6884 52.9513 49.6584C53.0513 49.6284 53.1263 49.5984 53.1763 49.5684C53.2263 49.5284 53.2563 49.5084 53.2663 49.5084C53.4063 49.4284 53.5363 49.3534 53.6563 49.2834C53.7863 49.2134 53.9163 49.1784 54.0463 49.1784C54.2163 49.1784 54.3913 49.2434 54.5713 49.3734C54.7513 49.4934 54.9513 49.6934 55.1713 49.9734C55.3813 50.2334 55.4963 50.4784 55.5163 50.7084C55.5463 50.9284 55.4913 51.1384 55.3513 51.3384C55.2113 51.5284 54.9963 51.7134 54.7063 51.8934C54.6763 51.9134 54.5713 51.9734 54.3913 52.0734C54.2213 52.1634 53.9913 52.2534 53.7013 52.3434C53.4113 52.4334 53.0663 52.4784 52.6663 52.4784ZM62.8503 49.9284C63.2203 50.2584 63.4153 50.5734 63.4353 50.8734C63.4653 51.1634 63.3003 51.4984 62.9403 51.8784C62.6703 52.1584 62.4353 52.3384 62.2353 52.4184C62.0453 52.5084 61.8553 52.5084 61.6653 52.4184C61.4753 52.3384 61.2503 52.1834 60.9903 51.9534L59.1453 50.2284V51.0534C59.1453 51.2734 59.1253 51.4884 59.0853 51.6984C59.0453 51.9084 58.9303 52.0784 58.7403 52.2084C58.5603 52.3384 58.2403 52.4034 57.7803 52.4034C57.3303 52.4034 57.0103 52.3384 56.8203 52.2084C56.6303 52.0684 56.5153 51.8934 56.4753 51.6834C56.4453 51.4734 56.4303 51.2584 56.4303 51.0384V42.6834C56.4303 42.4534 56.4503 42.2384 56.4903 42.0384C56.5303 41.8284 56.6453 41.6584 56.8353 41.5284C57.0253 41.3884 57.3453 41.3184 57.7953 41.3184C58.2453 41.3184 58.5603 41.3884 58.7403 41.5284C58.9303 41.6584 59.0453 41.8284 59.0853 42.0384C59.1253 42.2484 59.1453 42.4684 59.1453 42.6984V46.8384L60.4203 45.5934C60.6603 45.3634 60.8853 45.2084 61.0953 45.1284C61.3053 45.0384 61.5103 45.0334 61.7103 45.1134C61.9203 45.1834 62.1403 45.3434 62.3703 45.5934C62.7603 46.0134 62.9453 46.3534 62.9253 46.6134C62.9153 46.8734 62.7303 47.1834 62.3703 47.5434L61.1553 48.6084L62.8503 49.9284ZM27.3382 70.4184C26.8982 70.4184 26.5832 70.3534 26.3932 70.2234C26.2032 70.0834 26.0882 69.9084 26.0482 69.6984C26.0082 69.4784 25.9882 69.2584 25.9882 69.0384V62.2734C25.9882 61.9534 26.0482 61.6234 26.1682 61.2834C26.2882 60.9334 26.4732 60.6134 26.7232 60.3234C26.9832 60.0234 27.3082 59.7834 27.6982 59.6034C28.0982 59.4134 28.5732 59.3184 29.1232 59.3184C29.3432 59.3184 29.5582 59.3384 29.7682 59.3784C29.9782 59.4184 30.1482 59.5334 30.2782 59.7234C30.4182 59.9034 30.4882 60.2234 30.4882 60.6834C30.4882 61.1334 30.4182 61.4534 30.2782 61.6434C30.1382 61.8334 29.9632 61.9484 29.7532 61.9884C29.5432 62.0184 29.3282 62.0334 29.1082 62.0334C29.0382 62.0334 28.9782 62.0384 28.9282 62.0484C28.8782 62.0584 28.8382 62.0734 28.8082 62.0934C28.7782 62.1034 28.7532 62.1234 28.7332 62.1534C28.7232 62.1834 28.7182 62.2134 28.7182 62.2434V69.0684C28.7182 69.2884 28.6982 69.5034 28.6582 69.7134C28.6182 69.9134 28.4982 70.0834 28.2982 70.2234C28.1082 70.3534 27.7882 70.4184 27.3382 70.4184ZM25.6732 62.8734H27.4282L29.4982 62.7984C29.7182 62.7984 29.9282 62.8184 30.1282 62.8584C30.3382 62.8984 30.5082 63.0134 30.6382 63.2034C30.7782 63.3934 30.8482 63.7184 30.8482 64.1784C30.8482 64.5984 30.7782 64.9034 30.6382 65.0934C30.5082 65.2834 30.3382 65.4034 30.1282 65.4534C29.9282 65.5034 29.7132 65.5284 29.4832 65.5284L27.5782 65.4834H25.6132C25.2732 65.4634 25.0382 65.3534 24.9082 65.1534C24.7782 64.9534 24.7132 64.6234 24.7132 64.1634C24.7132 63.7334 24.7932 63.4134 24.9532 63.2034C25.1132 62.9834 25.3532 62.8734 25.6732 62.8734ZM32.7974 70.4034C32.3474 70.4034 32.0274 70.3384 31.8374 70.2084C31.6474 70.0684 31.5324 69.8934 31.4924 69.6834C31.4624 69.4734 31.4474 69.2584 31.4474 69.0384V64.1484C31.4474 63.9284 31.4674 63.7184 31.5074 63.5184C31.5474 63.3084 31.6624 63.1384 31.8524 63.0084C32.0424 62.8684 32.3624 62.7984 32.8124 62.7984C33.2624 62.7984 33.5774 62.8684 33.7574 63.0084C33.9474 63.1384 34.0624 63.3084 34.1024 63.5184C34.1424 63.7284 34.1624 63.9484 34.1624 64.1784V69.0534C34.1624 69.2734 34.1424 69.4884 34.1024 69.6984C34.0624 69.9084 33.9474 70.0784 33.7574 70.2084C33.5774 70.3384 33.2574 70.4034 32.7974 70.4034ZM32.7974 62.0634C32.3474 62.0634 32.0274 61.9984 31.8374 61.8684C31.6474 61.7284 31.5324 61.5534 31.4924 61.3434C31.4624 61.1334 31.4474 60.9184 31.4474 60.6984C31.4474 60.4684 31.4674 60.2534 31.5074 60.0534C31.5474 59.8434 31.6624 59.6734 31.8524 59.5434C32.0424 59.4134 32.3624 59.3484 32.8124 59.3484C33.2624 59.3484 33.5774 59.4184 33.7574 59.5584C33.9474 59.6884 34.0624 59.8584 34.1024 60.0684C34.1424 60.2784 34.1624 60.4934 34.1624 60.7134C34.1624 60.9334 34.1424 61.1484 34.1024 61.3584C34.0624 61.5684 33.9474 61.7384 33.7574 61.8684C33.5774 61.9984 33.2574 62.0634 32.7974 62.0634ZM38.317 70.4034C37.857 70.4034 37.452 70.3834 37.102 70.3434C36.762 70.3034 36.472 70.2234 36.232 70.1034C35.992 69.9834 35.797 69.8134 35.647 69.5934C35.497 69.3634 35.387 69.0684 35.317 68.7084C35.247 68.3384 35.212 67.8784 35.212 67.3284V60.6834C35.212 60.4534 35.232 60.2384 35.272 60.0384C35.312 59.8284 35.427 59.6584 35.617 59.5284C35.807 59.3884 36.127 59.3184 36.577 59.3184C37.027 59.3184 37.342 59.3884 37.522 59.5284C37.712 59.6584 37.827 59.8284 37.867 60.0384C37.907 60.2484 37.927 60.4684 37.927 60.6984V67.1634C37.927 67.3134 37.927 67.4334 37.927 67.5234C37.937 67.6034 37.952 67.6634 37.972 67.7034C38.002 67.7434 38.042 67.7684 38.092 67.7784C38.152 67.7784 38.232 67.7784 38.332 67.7784C38.462 67.7784 38.597 67.7984 38.737 67.8384C38.887 67.8684 39.012 67.9734 39.112 68.1534C39.222 68.3234 39.277 68.6234 39.277 69.0534C39.277 69.5034 39.222 69.8234 39.112 70.0134C39.012 70.2034 38.887 70.3134 38.737 70.3434C38.587 70.3834 38.447 70.4034 38.317 70.4034ZM41.1152 70.4034C40.6652 70.4034 40.3452 70.3384 40.1552 70.2084C39.9652 70.0684 39.8502 69.8934 39.8102 69.6834C39.7802 69.4734 39.7652 69.2584 39.7652 69.0384V64.1334C39.7652 63.9034 39.7852 63.6884 39.8252 63.4884C39.8652 63.2784 39.9802 63.1084 40.1702 62.9784C40.3602 62.8484 40.6852 62.7834 41.1452 62.7834C41.5952 62.7834 41.9202 62.8734 42.1202 63.0534C42.3302 63.2234 42.4352 63.5034 42.4352 63.8934L42.1802 63.8184C42.1802 63.8184 42.2152 63.7684 42.2852 63.6684C42.3652 63.5584 42.4752 63.4334 42.6152 63.2934C42.7652 63.1534 42.9452 63.0334 43.1552 62.9334C43.3652 62.8234 43.6052 62.7684 43.8752 62.7684C44.1852 62.7684 44.4702 62.8084 44.7302 62.8884C44.9902 62.9684 45.2252 63.0934 45.4352 63.2634C45.6552 63.4234 45.8452 63.6234 46.0052 63.8634C46.1152 63.7334 46.2652 63.5834 46.4552 63.4134C46.6452 63.2434 46.8702 63.0934 47.1302 62.9634C47.4002 62.8334 47.7002 62.7684 48.0302 62.7684C48.6202 62.7684 49.1202 62.9184 49.5302 63.2184C49.9502 63.5184 50.2652 63.9534 50.4752 64.5234C50.6952 65.0934 50.8052 65.7834 50.8052 66.5934V69.0384C50.8052 69.2584 50.7852 69.4734 50.7452 69.6834C50.7052 69.8934 50.5902 70.0684 50.4002 70.2084C50.2102 70.3384 49.8852 70.4034 49.4252 70.4034C48.9752 70.4034 48.6552 70.3334 48.4652 70.1934C48.2752 70.0534 48.1602 69.8784 48.1202 69.6684C48.0902 69.4584 48.0752 69.2434 48.0752 69.0234V66.5784C48.0752 66.3384 48.0452 66.1434 47.9852 65.9934C47.9352 65.8334 47.8552 65.7134 47.7452 65.6334C47.6452 65.5534 47.5152 65.5134 47.3552 65.5134C47.1852 65.5134 47.0452 65.5484 46.9352 65.6184C46.8352 65.6884 46.7602 65.8034 46.7102 65.9634C46.6702 66.1134 46.6502 66.3234 46.6502 66.5934V69.0384C46.6502 69.2584 46.6302 69.4734 46.5902 69.6834C46.5502 69.8934 46.4352 70.0684 46.2452 70.2084C46.0552 70.3384 45.7302 70.4034 45.2702 70.4034C44.8202 70.4034 44.5002 70.3334 44.3102 70.1934C44.1202 70.0534 44.0052 69.8784 43.9652 69.6684C43.9352 69.4584 43.9202 69.2434 43.9202 69.0234V66.5784C43.9202 66.3384 43.8952 66.1384 43.8452 65.9784C43.7952 65.8184 43.7152 65.7034 43.6052 65.6334C43.5052 65.5534 43.3702 65.5134 43.2002 65.5134C43.0002 65.5134 42.8502 65.5634 42.7502 65.6634C42.6502 65.7634 42.5802 65.8934 42.5402 66.0534C42.5102 66.2134 42.4952 66.3884 42.4952 66.5784V69.0534C42.4952 69.2734 42.4752 69.4884 42.4352 69.6984C42.3952 69.9084 42.2802 70.0784 42.0902 70.2084C41.9002 70.3384 41.5752 70.4034 41.1152 70.4034ZM54.4954 70.5384C54.2154 70.5384 53.9004 70.5034 53.5504 70.4334C53.2104 70.3734 52.8754 70.2834 52.5454 70.1634C52.2254 70.0334 51.9604 69.8834 51.7504 69.7134C51.5404 69.5434 51.4354 69.3484 51.4354 69.1284C51.4354 69.0284 51.4554 68.9184 51.4954 68.7984C51.5454 68.6684 51.6104 68.5284 51.6904 68.3784C51.7704 68.2284 51.8704 68.0684 51.9904 67.8984C52.0604 67.7984 52.1404 67.7234 52.2304 67.6734C52.3304 67.6234 52.4454 67.5984 52.5754 67.5984C52.7554 67.5984 52.9304 67.6384 53.1004 67.7184C53.2704 67.7884 53.4404 67.8734 53.6104 67.9734C53.7804 68.0634 53.9554 68.1484 54.1354 68.2284C54.3254 68.2984 54.5254 68.3334 54.7354 68.3334C54.9254 68.3334 55.0654 68.3134 55.1554 68.2734C55.2554 68.2334 55.3054 68.1734 55.3054 68.0934C55.3054 68.0134 55.2704 67.9484 55.2004 67.8984C55.1404 67.8484 55.0504 67.8084 54.9304 67.7784C54.8204 67.7384 54.6904 67.7034 54.5404 67.6734C54.3904 67.6434 54.2304 67.6084 54.0604 67.5684C53.8904 67.5284 53.7154 67.4784 53.5354 67.4184C53.3054 67.3484 53.0804 67.2584 52.8604 67.1484C52.6404 67.0284 52.4404 66.8734 52.2604 66.6834C52.0904 66.4934 51.9504 66.2634 51.8404 65.9934C51.7404 65.7234 51.6904 65.3934 51.6904 65.0034C51.6904 64.4834 51.8104 64.0484 52.0504 63.6984C52.2904 63.3484 52.6454 63.0834 53.1154 62.9034C53.5854 62.7234 54.1654 62.6334 54.8554 62.6334C55.0254 62.6334 55.1954 62.6434 55.3654 62.6634C55.5354 62.6834 55.7054 62.7134 55.8754 62.7534C56.0554 62.7934 56.2304 62.8484 56.4004 62.9184C56.5804 62.9784 56.7604 63.0484 56.9404 63.1284C57.3104 63.2884 57.5004 63.5134 57.5104 63.8034C57.5204 64.0834 57.4154 64.3784 57.1954 64.6884C57.0754 64.8784 56.9504 65.0234 56.8204 65.1234C56.7004 65.2134 56.5754 65.2584 56.4454 65.2584C56.2854 65.2584 56.1104 65.2134 55.9204 65.1234C55.7304 65.0334 55.5304 64.9434 55.3204 64.8534C55.1104 64.7634 54.9004 64.7184 54.6904 64.7184C54.5704 64.7184 54.4654 64.7334 54.3754 64.7634C54.2954 64.7834 54.2354 64.8184 54.1954 64.8684C54.1554 64.9084 54.1354 64.9584 54.1354 65.0184C54.1354 65.1284 54.1704 65.2184 54.2404 65.2884C54.3204 65.3484 54.4204 65.3984 54.5404 65.4384C54.6704 65.4784 54.8154 65.5134 54.9754 65.5434C55.1454 65.5734 55.3254 65.6034 55.5154 65.6334C55.7754 65.6734 56.0404 65.7384 56.3104 65.8284C56.5904 65.9084 56.8454 66.0284 57.0754 66.1884C57.3054 66.3484 57.4904 66.5684 57.6304 66.8484C57.7704 67.1284 57.8404 67.4934 57.8404 67.9434C57.8404 68.7934 57.5554 69.4384 56.9854 69.8784C56.4254 70.3184 55.5954 70.5384 54.4954 70.5384ZM59.7159 70.4184C59.1859 70.4184 58.8109 70.3134 58.5909 70.1034C58.3809 69.8934 58.2759 69.5284 58.2759 69.0084C58.2759 68.6384 58.3209 68.3484 58.4109 68.1384C58.5109 67.9284 58.6659 67.7784 58.8759 67.6884C59.0859 67.5884 59.3709 67.5384 59.7309 67.5384C60.2609 67.5384 60.6309 67.6484 60.8409 67.8684C61.0509 68.0784 61.1559 68.4534 61.1559 68.9934C61.1559 69.3434 61.1109 69.6234 61.0209 69.8334C60.9309 70.0434 60.7809 70.1934 60.5709 70.2834C60.3609 70.3734 60.0759 70.4184 59.7159 70.4184Z" fill="black"/>
</svg>
